<svg width="11" height="14" viewBox="0 0 11 14" fill="none" xmlns="http://www.w3.org/2000/svg">
<path d="M5.43797 10.8759C5.43257 10.8705 5.42716 10.8651 5.42716 10.8597C5.42176 10.8543 5.42176 10.8543 5.41635 10.8489C5.41094 10.8489 5.41095 10.8435 5.40554 10.8435C5.40013 10.8381 5.39473 10.8381 5.38932 10.8327C5.38392 10.8327 5.37851 10.8273 5.37311 10.8273C5.3677 10.8273 5.36229 10.8219 5.36229 10.8219C5.35689 10.8219 5.35148 10.8219 5.34608 10.8165C5.34067 10.8165 5.33527 10.8165 5.32986 10.8165C5.32446 10.8165 5.31905 10.8165 5.31365 10.8165C5.30824 10.8165 5.30283 10.8165 5.29743 10.8165C5.29202 10.8165 5.28662 10.8165 5.28121 10.8165C5.27581 10.8165 5.2704 10.8165 5.265 10.8219C5.25959 10.8219 5.25418 10.8273 5.25418 10.8273C5.24878 10.8273 5.24337 10.8327 5.23797 10.8327C5.23256 10.8327 5.22716 10.8381 5.22175 10.8435C5.21635 10.8435 5.21635 10.8489 5.21094 10.8489C5.20554 10.8543 5.20553 10.8543 5.20013 10.8597C5.19472 10.8651 5.18932 10.8705 5.18932 10.8705L4.75147 11.4165C4.69742 11.4867 4.70823 11.584 4.7785 11.6381C4.80553 11.6597 4.84336 11.6705 4.8758 11.6705C4.92445 11.6705 4.96769 11.6489 5.00013 11.6111L5.00553 11.6057C5.1677 11.4057 5.47041 11.4057 5.62717 11.6057L5.63257 11.6111C5.665 11.6489 5.70825 11.6705 5.7569 11.6705C5.78933 11.6705 5.82717 11.6597 5.8542 11.6381C5.92447 11.584 5.93528 11.4813 5.88122 11.4165L5.43797 10.8759Z" fill="#F1F1F1"/>
<path d="M4.70826 1.64328C4.48664 1.64328 4.30285 1.81626 4.29204 2.03788L3.46499 2.34059C3.42175 2.35681 3.38932 2.39465 3.38932 2.4433V2.96763H2.72444C2.67579 2.78925 2.51903 2.65952 2.32443 2.65952C2.0974 2.65952 1.9082 2.84331 1.9082 3.07574C1.9082 3.30278 2.09199 3.49197 2.32443 3.49197C2.51903 3.49197 2.67579 3.36224 2.72444 3.18385H3.49743C3.55689 3.18385 3.60554 3.1352 3.60554 3.07574V2.51897L4.33528 2.2487C4.40555 2.38384 4.5461 2.47573 4.70286 2.47573C4.92989 2.47573 5.11908 2.29194 5.11908 2.05951C5.12449 1.83247 4.9353 1.64328 4.70826 1.64328Z" fill="#F1F1F1"/>
<path d="M3.83257 9.38399C3.69743 9.33534 3.5677 9.28669 3.44337 9.23264C3.35148 9.18939 3.25958 9.14615 3.1731 9.10291C3.37851 9.30832 3.87581 9.67589 4.41096 9.6867C4.44339 9.64886 4.47042 9.61102 4.49204 9.56237C4.41096 9.54616 4.32988 9.52994 4.2488 9.50832C4.10285 9.47048 3.96771 9.43264 3.83257 9.38399Z" fill="#9D9D9C"/>
<path d="M10.6164 5.61093C10.6164 5.35687 10.6002 5.10281 10.5624 4.85956C10.5624 4.84335 10.557 4.82713 10.557 4.81091C10.2272 2.66492 8.60018 0.902722 6.4596 0.432442C6.40554 0.189193 6.18932 0.00540585 5.92986 0.00540585C5.62715 0.00540585 5.3839 0.248654 5.3839 0.551363C5.3839 0.810828 5.56769 1.02705 5.81094 1.0811V3.07574C5.81094 3.10818 5.82715 3.14061 5.85418 3.16223C5.8704 3.17304 5.89202 3.17845 5.91364 3.17845C5.92445 3.17845 5.94067 3.17845 5.95148 3.17304L6.7515 2.87033C6.80555 2.95142 6.88663 3.00547 6.98393 3.0325V3.97306C6.57852 4.47037 6.07581 4.91902 5.54066 5.31903L4.92983 3.90279C5.04335 3.82711 5.11903 3.70278 5.11903 3.55683C5.11903 3.3298 4.93524 3.14061 4.7028 3.14061C4.47577 3.14061 4.28658 3.3244 4.28658 3.55683C4.28658 3.78387 4.47037 3.97306 4.7028 3.97306C4.70821 3.97306 4.71902 3.97306 4.72443 3.97306L5.36228 5.44877C4.9893 5.71904 4.6055 5.96229 4.22712 6.18392L2.41086 5.63796C2.38924 5.63255 2.36762 5.63255 2.346 5.64336L1.80544 5.85418C1.72977 5.75147 1.61085 5.68661 1.4703 5.68661C1.24327 5.68661 1.05408 5.8704 1.05408 6.10283C1.05408 6.32987 1.23786 6.51906 1.4703 6.51906C1.69733 6.51906 1.88653 6.33527 1.88653 6.10283C1.88653 6.08662 1.88112 6.0704 1.88112 6.05418L2.38924 5.85418L3.97306 6.32987C2.62168 7.08664 1.41084 7.52449 1.21084 7.59476L1.11354 7.62719C1.02705 7.56232 0.918938 7.52449 0.800017 7.52449C0.794611 7.52449 0.789206 7.52449 0.783801 7.52449C0.529741 6.92447 0.400008 6.27041 0.400008 5.61634C0.400008 5.29201 0.432441 4.97308 0.491902 4.66497H2.86493C2.91358 4.84335 3.07034 4.97308 3.26493 4.97308C3.49197 4.97308 3.68116 4.78929 3.68116 4.55685C3.68116 4.32982 3.49737 4.14063 3.26493 4.14063C3.07034 4.14063 2.91358 4.27036 2.86493 4.44874H0.540552C0.978399 2.67033 2.38383 1.24868 4.20009 0.827045C4.29739 0.983805 4.47037 1.09192 4.66496 1.09192C4.96767 1.09192 5.21092 0.848667 5.21092 0.545958C5.21092 0.243249 4.96767 0 4.66496 0C4.40009 0 4.18387 0.189193 4.12982 0.432442C1.74598 0.972994 0 3.11899 0 5.60553C0 6.31365 0.140543 7.02177 0.416225 7.67044C0.31352 7.76773 0.254059 7.90828 0.254059 8.05963C0.254059 8.30288 0.410819 8.50288 0.62704 8.57856V10.7083C0.62704 10.7462 0.637851 10.784 0.659473 10.8164L0.778395 10.8975L2.39465 12.0381V13.4003C2.39465 13.5138 2.48654 13.6057 2.60006 13.6057H8.00558C8.11909 13.6057 8.21099 13.5138 8.21099 13.4003V12.0381L9.83264 10.8975L9.95157 10.811C9.97319 10.7786 9.984 10.7408 9.984 10.7029V8.55694C10.184 8.47586 10.3245 8.28126 10.3245 8.05423C10.3245 7.91368 10.2705 7.78395 10.184 7.68665C10.4705 7.04339 10.6164 6.32987 10.6164 5.61093V5.61093ZM4.47577 0.372981C4.52442 0.318926 4.59469 0.286493 4.67037 0.286493C4.81632 0.286493 4.93524 0.405414 4.93524 0.551363C4.93524 0.697312 4.81632 0.816234 4.67037 0.816234C4.61631 0.816234 4.56766 0.800017 4.52442 0.77299C4.45415 0.72434 4.4055 0.643257 4.4055 0.556769C4.4055 0.481092 4.43253 0.416225 4.47577 0.372981V0.372981ZM5.66499 0.545958C5.66499 0.400009 5.78391 0.281087 5.92986 0.281087C6.00553 0.281087 6.0704 0.31352 6.11905 0.36217C6.16229 0.41082 6.18932 0.47028 6.18932 0.540552C6.18932 0.62704 6.14608 0.708123 6.07581 0.756773C6.03256 0.789206 5.98391 0.805423 5.92445 0.805423C5.78391 0.810829 5.66499 0.691907 5.66499 0.545958V0.545958ZM6.68122 2.62708C6.68122 2.6433 6.68663 2.65411 6.68663 2.66492L6.02716 2.91358V1.0757C6.18932 1.04867 6.32446 0.951372 6.40014 0.816234C6.97853 0.945967 7.51908 1.1784 8.00017 1.49733C7.99477 2.29735 7.68665 3.0325 7.20015 3.69738V3.02709C7.37854 2.97844 7.50827 2.82168 7.50827 2.62708C7.50827 2.40005 7.32448 2.21086 7.09204 2.21086C6.86501 2.21626 6.68122 2.40005 6.68122 2.62708V2.62708ZM0.805422 8.3245C0.740556 8.3245 0.681096 8.29748 0.632446 8.25964C0.578391 8.21099 0.540552 8.14072 0.540552 8.06504C0.540552 8.0326 0.545957 8.00017 0.556768 7.97314C0.594607 7.87585 0.691906 7.80557 0.800017 7.80557C0.848666 7.80557 0.891911 7.82179 0.92975 7.84341C1.00543 7.88666 1.05948 7.97314 1.05948 8.07044C1.05948 8.11909 1.04327 8.16234 1.02164 8.20018C0.983805 8.27585 0.902722 8.3245 0.805422 8.3245V8.3245ZM9.99481 8.2218C9.94616 8.28126 9.87048 8.3245 9.7894 8.3245C9.71372 8.3245 9.64886 8.29207 9.60021 8.24342C9.55696 8.19477 9.52993 8.13531 9.52993 8.06504C9.52993 7.95152 9.60021 7.85422 9.70291 7.82179C9.72994 7.81098 9.76237 7.80557 9.7948 7.80557C9.91913 7.80557 10.0272 7.89747 10.0543 8.01639C10.0597 8.0326 10.0597 8.04882 10.0597 8.07044C10.0489 8.1245 10.0272 8.17855 9.99481 8.2218V8.2218ZM9.83264 7.51908C9.81643 7.51908 9.80021 7.51908 9.78399 7.51908C9.48128 7.51908 9.23804 7.76233 9.23804 8.06504C9.23804 8.29748 9.38399 8.49748 9.5948 8.57316V10.5624L7.89206 11.7624C7.83801 11.8003 7.80557 11.8651 7.80557 11.93V13.076C7.80557 13.1408 7.75152 13.1949 7.68665 13.1949H7.05421C6.98934 13.1949 6.93528 13.1408 6.93528 13.076V12.6651C6.93528 12.557 6.85961 12.4597 6.7515 12.4489C6.62717 12.4381 6.52446 12.5354 6.52446 12.6543V13.0814C6.52446 13.1462 6.47041 13.2003 6.40554 13.2003H5.63255C5.56769 13.2003 5.51363 13.1462 5.51363 13.0814V12.4489C5.51363 12.3408 5.43795 12.2435 5.32984 12.2327C5.20552 12.2219 5.10281 12.3192 5.10281 12.4381V13.0868C5.10281 13.1516 5.04876 13.2057 4.98389 13.2057H4.2109C4.14603 13.2057 4.09198 13.1516 4.09198 13.0868V12.6651C4.09198 12.557 4.0163 12.4597 3.90819 12.4489C3.78386 12.4381 3.68116 12.5354 3.68116 12.6543V13.0814C3.68116 13.1462 3.6271 13.2003 3.56224 13.2003H2.92979C2.86493 13.2003 2.81087 13.1462 2.81087 13.0814V11.9354C2.81087 11.8705 2.77844 11.8057 2.72438 11.7678L1.02705 10.5678V8.55694C1.21624 8.47045 1.34597 8.28126 1.34597 8.05963C1.34597 8.0272 1.34057 7.99477 1.33516 7.96233C1.55138 7.88666 3.20007 7.29745 4.82172 6.28662C7.01637 4.91902 8.23261 3.36764 8.37315 1.77301C9.31912 2.53519 9.97319 3.63792 10.1624 4.87578C10.1354 7.58395 5.41633 9.25425 5.36768 9.27047C5.35687 9.27588 5.32984 9.28128 5.30822 9.29209C5.24876 9.28128 5.1893 9.27047 5.12443 9.25966C5.08119 9.24885 5.03254 9.24344 4.9893 9.23263C4.91902 9.22182 4.84875 9.2056 4.77848 9.18939C4.76767 9.18398 4.75145 9.18398 4.74064 9.18398C4.71361 9.17858 4.68659 9.17317 4.65956 9.16776C4.62713 9.16236 4.59469 9.15155 4.56226 9.14614C4.48658 9.12993 4.4109 9.11371 4.34063 9.09209C4.20549 9.05965 4.07576 9.02182 3.94603 8.98938C3.8217 8.95154 3.69197 8.91911 3.57305 8.88127C3.56764 8.88127 3.56764 8.88127 3.56224 8.88127C3.47034 8.85424 3.38386 8.82722 3.29737 8.79478C3.27034 8.78397 3.23791 8.77316 3.21088 8.76776C3.16764 8.75154 3.1298 8.74073 3.09196 8.72992C3.02169 8.7083 2.95682 8.68667 2.89736 8.65965H2.89195C2.79465 8.62721 2.70817 8.59478 2.63249 8.56235C2.55141 8.52991 2.48113 8.50289 2.42708 8.48126C2.37302 8.45424 2.32437 8.43802 2.29735 8.4218C2.26491 8.40559 2.2487 8.40018 2.2487 8.40018C2.2487 8.40018 2.25951 8.4164 2.28113 8.43802C2.30275 8.46505 2.33518 8.50288 2.38383 8.54613C2.42708 8.58937 2.48654 8.64343 2.55681 8.69748C2.62708 8.75154 2.70817 8.811 2.79465 8.87046C2.79465 8.87046 2.79465 8.87046 2.80006 8.87046C2.76763 8.97857 2.746 9.09749 2.746 9.21641C2.746 9.83805 3.25412 10.3462 3.87576 10.3462C4.35685 10.3462 4.76767 10.0435 4.92983 9.61642C4.98389 9.62183 5.04335 9.62723 5.09741 9.63264C5.19471 9.63804 5.2866 9.63804 5.37309 9.63804C5.37849 9.63804 5.3839 9.64345 5.3893 9.64345L6.30284 10.5732C6.53528 10.8056 6.89745 10.8435 7.16772 10.6651L8.59478 9.86508C8.71911 9.78399 8.80019 9.64345 8.80019 9.4921V7.84882C9.35155 7.41097 9.84886 6.89204 10.1732 6.30284C10.1137 6.72987 10.0002 7.13529 9.83264 7.51908V7.51908ZM4.49199 9.56237C4.47037 9.60561 4.43793 9.64886 4.41091 9.68669C4.28117 9.83805 4.08657 9.93535 3.87035 9.93535C3.65413 9.93535 3.45953 9.83805 3.3298 9.68669C3.22169 9.56237 3.16223 9.4002 3.16223 9.22722C3.16223 9.18398 3.16763 9.14614 3.17304 9.1029C3.25953 9.14614 3.35142 9.18939 3.44332 9.23263C3.56764 9.28669 3.69738 9.34074 3.83251 9.38398C3.96765 9.43263 4.1082 9.47047 4.24874 9.50831C4.32982 9.52993 4.41091 9.54615 4.49199 9.56237V9.56237Z" fill="#F1F1F1"/>
</svg>
